<?xml version="1.0" encoding="UTF-8"?>
<svg version="1.1" xmlns="http://www.w3.org/2000/svg" width="225" height="225">
<path d="M0 0 C74.25 0 148.5 0 225 0 C225 74.25 225 148.5 225 225 C150.75 225 76.5 225 0 225 C0 150.75 0 76.5 0 0 Z " fill="#FEFEFE" transform="translate(0,0)"/>
<path d="M0 0 C6.42495487 0.7366674 12.76278774 1.78268549 19.125 2.9375 C20.08792969 3.10701172 21.05085938 3.27652344 22.04296875 3.45117188 C31.93584961 5.24059943 31.93584961 5.24059943 36 7 C38.01175938 10.01763907 38.26119094 10.75095433 38.37890625 14.16015625 C38.41306641 14.95357422 38.44722656 15.74699219 38.48242188 16.56445312 C38.50884766 17.38880859 38.53527344 18.21316406 38.5625 19.0625 C38.62236985 20.6993673 38.68599395 22.33610289 38.75390625 23.97265625 C38.77783447 24.69718994 38.8017627 25.42172363 38.82641602 26.16821289 C38.89801324 28.09672588 38.89801324 28.09672588 40 30 C40.01636685 32.10709392 39.96426144 34.21488448 39.87890625 36.3203125 C39.83056641 37.57714844 39.78222656 38.83398438 39.73242188 40.12890625 C39.67634766 41.44761719 39.62027344 42.76632813 39.5625 44.125 C39.50927587 45.46482438 39.45653549 46.80466808 39.40429688 48.14453125 C39.27429992 51.42990887 39.13932314 54.71500678 39 58 C39.99 58.495 39.99 58.495 41 59 C38.03 59.495 38.03 59.495 35 60 C35 59.34 35 58.68 35 58 C35.66 58 36.32 58 37 58 C37 49.09 37 40.18 37 31 C26.74117906 36.96958033 26.74117906 36.96958033 22 42 C19.25 42.75 19.25 42.75 17 43 C16.67 43.99 16.34 44.98 16 46 C12.9375 47.1875 12.9375 47.1875 10 48 C9.45627049 44.94152152 9 42.11227195 9 39 C8.34 38.01 7.68 37.02 7 36 C4.69 36.66 2.38 37.32 0 38 C-0.625 36.125 -0.625 36.125 -1 34 C0 33 1 32 2 31 C1.01 30.67 0.02 30.34 -1 30 C-1 27.69 -1 25.38 -1 23 C-0.67 23 -0.34 23 0 23 C0.33 24.65 0.66 26.3 1 28 C2.32 28.33 3.64 28.66 5 29 C5.99 25.535 5.99 25.535 7 22 C8.43640171 21.80426392 9.87419504 21.61872184 11.3125 21.4375 C12.11300781 21.33308594 12.91351563 21.22867188 13.73828125 21.12109375 C16 21 16 21 19 22 C19 21.34 19 20.68 19 20 C18.01 19.67 17.02 19.34 16 19 C16 18.34 16 17.68 16 17 C15.34 16.34 14.68 15.68 14 15 C14.66 15 15.32 15 16 15 C13.17283558 10.20342735 10.56744127 7.68385538 5.75 4.6875 C3.82175366 3.47657975 1.90140057 2.25265226 0 1 C0 0.67 0 0.34 0 0 Z " fill="#F5F7F4" transform="translate(23,78)"/>
<path d="M0 0 C0 8.91 0 17.82 0 27 C-0.66 27 -1.32 27 -2 27 C-2 27.66 -2 28.32 -2 29 C-2.66 29 -3.32 29 -4 29 C-4 29.66 -4 30.32 -4 31 C-5.79296875 32.3671875 -5.79296875 32.3671875 -8.1875 33.875 C-10.90865158 35.62064441 -13.41752407 37.33757265 -15.9375 39.375 C-18 41 -18 41 -20 41 C-20 41.66 -20 42.32 -20 43 C-23.73536869 46.27838209 -27.48086017 48.33938825 -32.5 48.3125 C-33.655 48.209375 -34.81 48.10625 -36 48 C-36 47.01 -36 46.02 -36 45 C-36.66 45 -37.32 45 -38 45 C-40.66631106 39.66737788 -40.86977786 31.64260821 -39 26 C-34.69458106 20.39338778 -27.64723822 16.21574607 -21 14 C-20.319375 13.319375 -20.319375 13.319375 -19.625 12.625 C-17.62037048 10.62037048 -15.4359809 9.46158854 -13 8 C-10.93329144 6.49546852 -8.89791466 4.95502035 -6.8671875 3.40234375 C-2.33704735 0 -2.33704735 0 0 0 Z " fill="#FCCC0B" transform="translate(60,109)"/>
<path d="M0 0 C2.64 0 5.28 0 8 0 C8.50354867 2.43681587 9.00296756 4.87435439 9.5 7.3125 C9.64308594 8.00279297 9.78617188 8.69308594 9.93359375 9.40429688 C10.52625044 12.32524773 11 15.01108122 11 18 C11.66 18 12.32 18 13 18 C13.12375 16.700625 13.2475 15.40125 13.375 14.0625 C13.89863328 9.28150048 14.86313835 4.66885899 16 0 C18.64 0 21.28 0 24 0 C24 8.25 24 16.5 24 25 C22.35 25 20.7 25 19 25 C18.505 18.565 18.505 18.565 18 12 C17.525625 13.959375 17.05125 15.91875 16.5625 17.9375 C15.125 23.875 15.125 23.875 14 25 C12.35 25 10.7 25 9 25 C7.68 19.39 6.36 13.78 5 8 C4.67 13.61 4.34 19.22 4 25 C2.68 25 1.36 25 0 25 C0 16.75 0 8.5 0 0 Z " fill="#27468A" transform="translate(103,96)"/>
<path d="M0 0 C6.42495487 0.7366674 12.76278774 1.78268549 19.125 2.9375 C20.08792969 3.10701172 21.05085938 3.27652344 22.04296875 3.45117188 C31.93584961 5.24059943 31.93584961 5.24059943 36 7 C38.52775351 10.79163027 38.22443035 13.80874031 38.125 18.1875 C38.11597656 18.93708984 38.10695312 19.68667969 38.09765625 20.45898438 C38.07412578 22.30612654 38.03825561 24.15310412 38 26 C33.09321925 24.3898137 29.32007792 21.56179191 25.1875 18.5625 C23.68302601 17.48335049 22.17779749 16.40525224 20.671875 15.328125 C19.90423828 14.77833984 19.13660156 14.22855469 18.34570312 13.66210938 C13.88712634 10.50286804 9.35895065 7.44351297 4.8269043 4.39086914 C3.20097295 3.28512032 1.59771558 2.14614052 0 1 C0 0.67 0 0.34 0 0 Z " fill="#2C3E8D" transform="translate(23,78)"/>
<path d="M0 0 C3.3 0 6.6 0 10 0 C10 8.25 10 16.5 10 25 C11.32 25 12.64 25 14 25 C14 18.4 14 11.8 14 5 C16.14226357 8.21339535 16.77027449 10.56983832 17.625 14.3125 C18.01558594 15.97732422 18.01558594 15.97732422 18.4140625 17.67578125 C18.9762234 20.86510743 19.10749599 23.77023409 19 27 C19.99 27.33 20.98 27.66 22 28 C21.34 28 20.68 28 20 28 C19.67 28.66 19.34 29.32 19 30 C18.67 29.01 18.34 28.02 18 27 C17.01 27.33 16.02 27.66 15 28 C15 27.34 15 26.68 15 26 C13.88625 26.020625 12.7725 26.04125 11.625 26.0625 C8 26 8 26 6 25 C5.67 25.99 5.34 26.98 5 28 C3.02 28 1.04 28 -1 28 C-0.67 27.34 -0.34 26.68 0 26 C0.08510205 24.0406396 0.10717656 22.07837206 0.09765625 20.1171875 C0.09443359 18.95058594 0.09121094 17.78398438 0.08789062 16.58203125 C0.07951172 15.35871094 0.07113281 14.13539062 0.0625 12.875 C0.05798828 11.64394531 0.05347656 10.41289063 0.04882812 9.14453125 C0.0370133 6.09630608 0.02054028 3.04817686 0 0 Z " fill="#E8EEF5" transform="translate(93,96)"/>
<path d="M0 0 C2.6875 1.75 2.6875 1.75 4 4 C4 5.32 4 6.64 4 8 C2.35 8 0.7 8 -1 8 C-1.33 7.01 -1.66 6.02 -2 5 C-4.31 5 -6.62 5 -9 5 C-8.88004245 6.97448142 -8.88004245 6.97448142 -8 9 C-5.7856942 10.07236203 -5.7856942 10.07236203 -3.125 10.625 C0.20573288 11.45040028 2.09071943 12.06047962 5 14 C5.4375 17.375 5.4375 17.375 5 21 C3.13291495 23.36497439 1.67938569 24.66030715 -1 26 C-5.50252506 26.25485991 -8.99377865 26.17480588 -13 24 C-15 21 -15 21 -15 18 C-12.6875 17.8125 -12.6875 17.8125 -10 18 C-9.525625 18.515625 -9.05125 19.03125 -8.5625 19.5625 C-8.046875 20.036875 -7.53125 20.51125 -7 21 C-3.85078091 20.76716851 -3.85078091 20.76716851 -1 20 C-1 19.01 -1 18.02 -1 17 C-2.26457031 16.61908203 -2.26457031 16.61908203 -3.5546875 16.23046875 C-4.65039062 15.88628906 -5.74609375 15.54210937 -6.875 15.1875 C-7.96554688 14.85105469 -9.05609375 14.51460937 -10.1796875 14.16796875 C-13 13 -13 13 -15 10 C-14.67554947 3.94359006 -14.67554947 3.94359006 -12.7890625 1.30859375 C-9.14369597 -1.35777696 -4.28980046 -0.58438898 0 0 Z " fill="#2C4A93" transform="translate(84,96)"/>
<path d="M0 0 C5.94 0 11.88 0 18 0 C18 1.65 18 3.3 18 5 C13.71 5 9.42 5 5 5 C5 6.65 5 8.3 5 10 C8.96 10 12.92 10 17 10 C17 11.32 17 12.64 17 14 C13.04 14 9.08 14 5 14 C5 16.31 5 18.62 5 21 C9.62 21 14.24 21 19 21 C19 22.32 19 23.64 19 25 C12.73 25 6.46 25 0 25 C0 16.75 0 8.5 0 0 Z " fill="#1E4291" transform="translate(132,96)"/>
<path d="M0 0 C0.99 0 1.98 0 3 0 C3 4.29 3 8.58 3 13 C3.99 12.34 4.98 11.68 6 11 C9.58823475 11.12815124 12.05539031 11.26868927 14.9375 13.5 C16.51048221 17.2011346 16.92127009 21.06102629 16 25 C12 28 12 28 0 28 C0 18.76 0 9.52 0 0 Z " fill="#2D4C94" transform="translate(185,93)"/>
<path d="M0 0 C0 5.28 0 10.56 0 16 C-13.45401112 16.49372518 -13.45401112 16.49372518 -15.91796875 14.265625 C-17.72457288 10.48284378 -17.74905262 7.08982729 -17 3 C-12.97144305 -3.04283543 -6.31448255 -0.83267902 0 0 Z " fill="#345294" transform="translate(180,105)"/>
<path d="M0 0 C1.65 0 3.3 0 5 0 C5 9.57 5 19.14 5 29 C3.35 29 1.7 29 0 29 C-0.33 24.38 -0.66 19.76 -1 15 C-1.99 14.67 -2.98 14.34 -4 14 C-4.33 15.32 -4.66 16.64 -5 18 C-5 16.68 -5 15.36 -5 14 C-8.96 14 -12.92 14 -17 14 C-17 12.35 -17 10.7 -17 9 C-12.71 9 -8.42 9 -4 9 C-4 7.35 -4 5.7 -4 4 C-2.68 3.67 -1.36 3.34 0 3 C0 2.01 0 1.02 0 0 Z " fill="#E0E8F0" transform="translate(154,92)"/>
<path d="M0 0 C0.33 0 0.66 0 1 0 C1 8.25 1 16.5 1 25 C-0.98 25.33 -2.96 25.66 -5 26 C-5.99 26.33 -6.98 26.66 -8 27 C-8.33 26.34 -8.66 25.68 -9 25 C-8.360625 24.896875 -7.72125 24.79375 -7.0625 24.6875 C-6.381875 24.460625 -5.70125 24.23375 -5 24 C-3.8422494 20.52674819 -3.93133348 17.63932552 -4 14 C-5.216875 13.54625 -6.43375 13.0925 -7.6875 12.625 C-8.41453125 12.34785156 -9.1415625 12.07070312 -9.890625 11.78515625 C-11.55655247 11.16506102 -13.24406085 10.6029593 -14.9375 10.0625 C-17 9 -17 9 -17.875 6.9375 C-17.91625 6.298125 -17.9575 5.65875 -18 5 C-17 4 -17 4 -13.4375 3.9375 C-12.303125 3.958125 -11.16875 3.97875 -10 4 C-9.67 5.32 -9.34 6.64 -9 8 C-7.35 8 -5.7 8 -4 8 C-3.67 7.01 -3.34 6.02 -3 5 C-2.34 5.33 -1.68 5.66 -1 6 C-0.67 4.02 -0.34 2.04 0 0 Z " fill="#F2F5F6" transform="translate(92,96)"/>
<path d="M0 0 C1.32 0.33 2.64 0.66 4 1 C3.01 1 2.02 1 1 1 C1 10.24 1 19.48 1 29 C2.32 28.67 3.64 28.34 5 28 C6.35420469 27.98180531 7.70950102 28.00254051 9.0625 28.0625 C13.05474774 28.35453056 13.05474774 28.35453056 16 26 C15.67 27.98 15.34 29.96 15 32 C14.34 32 13.68 32 13 32 C13 31.34 13 30.68 13 30 C12.34 30.66 11.68 31.32 11 32 C9.68352881 32.69937532 8.34977849 33.36729133 7 34 C6.01 34.495 6.01 34.495 5 35 C4.67 34.34 4.34 33.68 4 33 C2.35 33.66 0.7 34.32 -1 35 C-1 34.01 -1 33.02 -1 32 C-2.32 31.67 -3.64 31.34 -5 31 C-4.34 30.34 -3.68 29.68 -3 29 C-3.33 29 -3.66 29 -4 29 C-4 23.72 -4 18.44 -4 13 C-2.68 12.67 -1.36 12.34 0 12 C0 8.04 0 4.08 0 0 Z " fill="#FAFBF8" transform="translate(184,92)"/>
<path d="M0 0 C0 5.28 0 10.56 0 16 C1.65 16 3.3 16 5 16 C4.67 17.98 4.34 19.96 4 22 C0.21165605 20.73721868 -0.22011278 19.47887048 -2 16 C-2.33 14.68 -2.66 13.36 -3 12 C-7.62 12 -12.24 12 -17 12 C-17 9.69 -17 7.38 -17 5 C-12.71 5 -8.42 5 -4 5 C-4 3.68 -4 2.36 -4 1 C-1 0 -1 0 0 0 Z " fill="#F5FAFA" transform="translate(154,105)"/>
<path d="M0 0 C0 2.31 0 4.62 0 7 C0.66 6.67 1.32 6.34 2 6 C2.65555119 3.47266765 2.65555119 3.47266765 3 1 C3.33 1 3.66 1 4 1 C4 2.98 4 4.96 4 7 C2.35 7.33 0.7 7.66 -1 8 C-1.66 6.35 -2.32 4.7 -3 3 C-3.33 3 -3.66 3 -4 3 C-4.33 4.65 -4.66 6.3 -5 8 C-5.66 8 -6.32 8 -7 8 C-7.33 7.34 -7.66 6.68 -8 6 C-11.52299418 9.41569438 -11.52299418 9.41569438 -14.5625 13.25 C-16.27135463 15.33034477 -17.37821395 15.63837434 -20 16 C-20.625 14.125 -20.625 14.125 -21 12 C-20 11 -19 10 -18 9 C-18.99 8.67 -19.98 8.34 -21 8 C-21 5.69 -21 3.38 -21 1 C-20.67 1 -20.34 1 -20 1 C-19.67 2.65 -19.34 4.3 -19 6 C-17.68 6.33 -16.36 6.66 -15 7 C-14.34 4.69 -13.68 2.38 -13 0 C-4.57142857 -1.28571429 -4.57142857 -1.28571429 0 0 Z " fill="#ACAFBA" transform="translate(43,100)"/>
<path d="M0 0 C1.65 0 3.3 0 5 0 C5 8.25 5 16.5 5 25 C3.35 25 1.7 25 0 25 C0 16.75 0 8.5 0 0 Z " fill="#254383" transform="translate(93,96)"/>
<path d="M0 0 C1.32 0 2.64 0 4 0 C4 9.57 4 19.14 4 29 C2.68 29 1.36 29 0 29 C0 19.43 0 9.86 0 0 Z " fill="#375598" transform="translate(155,92)"/>
<path d="M0 0 C5.94 0 11.88 0 18 0 C18 1.65 18 3.3 18 5 C15.89590361 5.02701408 13.79170822 5.04640223 11.6875 5.0625 C10.51574219 5.07410156 9.34398437 5.08570312 8.13671875 5.09765625 C5 5 5 5 2 4 C1.67 10.6 1.34 17.2 1 24 C1.66 24.33 2.32 24.66 3 25 C2.01 25 1.02 25 0 25 C0 16.75 0 8.5 0 0 Z " fill="#345092" transform="translate(132,96)"/>
<path d="M0 0 C6.12415343 3.84282322 12.16865561 7.72368078 18 12 C17.01 12.66 16.02 13.32 15 14 C14.38125 13.67 13.7625 13.34 13.125 13 C11.08981656 11.85806765 11.08981656 11.85806765 9 12 C8.34 13.98 7.68 15.96 7 18 C6.34 18 5.68 18 5 18 C4.67 15.03 4.34 12.06 4 9 C3.01 8.67 2.02 8.34 1 8 C1 7.34 1 6.68 1 6 C0.34 5.34 -0.32 4.68 -1 4 C-0.34 4 0.32 4 1 4 C0.67 2.68 0.34 1.36 0 0 Z " fill="#FBFBF8" transform="translate(38,89)"/>
<path d="M0 0 C0.99 0.33 1.98 0.66 3 1 C1.78192862 2.15762119 0.54998765 3.3006583 -0.6875 4.4375 C-1.37199219 5.07558594 -2.05648437 5.71367188 -2.76171875 6.37109375 C-5.22289422 8.16221098 -7.00816574 8.62798558 -10 9 C-10.33 9.99 -10.66 10.98 -11 12 C-14.0625 13.1875 -14.0625 13.1875 -17 14 C-17.33 12.02 -17.66 10.04 -18 8 C-17.01 7.34 -16.02 6.68 -15 6 C-15 5.34 -15 4.68 -15 4 C-12.16730334 2.58365167 -9.52533562 2.6536995 -6.375 2.4375 C-4.59222656 2.31181641 -4.59222656 2.31181641 -2.7734375 2.18359375 C-1.85820313 2.12300781 -0.94296875 2.06242187 0 2 C0 1.34 0 0.68 0 0 Z " fill="#FAF7E4" transform="translate(50,112)"/>
<path d="M0 0 C1.76537109 0.50080078 1.76537109 0.50080078 3.56640625 1.01171875 C6.4375 2.3125 6.4375 2.3125 7.33984375 4.45703125 C7.37207031 5.06933594 7.40429688 5.68164062 7.4375 6.3125 C4.4375 8.3125 4.4375 8.3125 1.25 7.9375 C-0.1421875 7.628125 -0.1421875 7.628125 -1.5625 7.3125 C-1.8925 6.3225 -2.2225 5.3325 -2.5625 4.3125 C-4.2125 4.3125 -5.8625 4.3125 -7.5625 4.3125 C-7.2325 5.6325 -6.9025 6.9525 -6.5625 8.3125 C-7.2225 8.3125 -7.8825 8.3125 -8.5625 8.3125 C-8.5625 5.3425 -8.5625 2.3725 -8.5625 -0.6875 C-5.44924889 -2.24412555 -3.26618939 -0.96444012 0 0 Z " fill="#E5EAF1" transform="translate(76.5625,109.6875)"/>
<path d="M0 0 C2.14226357 3.21339535 2.77027449 5.56983832 3.625 9.3125 C3.88539062 10.42238281 4.14578125 11.53226563 4.4140625 12.67578125 C4.9762234 15.86510743 5.10749599 18.77023409 5 22 C5.99 22.33 6.98 22.66 8 23 C7.34 23 6.68 23 6 23 C5.67 23.66 5.34 24.32 5 25 C4.67 24.01 4.34 23.02 4 22 C3.01 22.33 2.02 22.66 1 23 C1 22.34 1 21.68 1 21 C-0.65 21 -2.3 21 -4 21 C-2.68 20.67 -1.36 20.34 0 20 C0 13.4 0 6.8 0 0 Z " fill="#CCD5E5" transform="translate(107,101)"/>
<path d="M0 0 C0.99 0 1.98 0 3 0 C3 4.29 3 8.58 3 13 C4.65 12.67 6.3 12.34 8 12 C7 15 7 15 5.0625 16.6875 C2.17374312 19.92640923 1.84575411 22.77122945 1 27 C1.66 27.33 2.32 27.66 3 28 C2.01 28 1.02 28 0 28 C0 18.76 0 9.52 0 0 Z " fill="#1F3E8A" transform="translate(185,93)"/>
<path d="M0 0 C2 3 2 3 2 5 C2.66 5 3.32 5 4 5 C4 11.27 4 17.54 4 24 C2.68 24 1.36 24 0 24 C0 16.08 0 8.16 0 0 Z " fill="#1C3B8D" transform="translate(103,97)"/>
<path d="M0 0 C2.9375 0.1875 2.9375 0.1875 3.9375 1.1875 C4.125 4.625 4.125 4.625 3.9375 8.1875 C1.9375 10.1875 1.9375 10.1875 -0.5625 10.4375 C-3.0625 10.1875 -3.0625 10.1875 -5.0625 8.1875 C-5.3125 5.1875 -5.3125 5.1875 -5.0625 2.1875 C-3.0625 0.1875 -3.0625 0.1875 0 0 Z " fill="#ECF2F3" transform="translate(193.0625,107.8125)"/>
<path d="M0 0 C2.5 0.25 2.5 0.25 4.5 2.25 C4.75 5.25 4.75 5.25 4.5 8.25 C2.5 10.25 2.5 10.25 0 10.5 C-2.5 10.25 -2.5 10.25 -4.5 8.25 C-4.75 5.25 -4.75 5.25 -4.5 2.25 C-2.5 0.25 -2.5 0.25 0 0 Z " fill="#EAF2F5" transform="translate(171.5,107.75)"/>
<path d="M0 0 C1.32 0.33 2.64 0.66 4 1 C3.01 1 2.02 1 1 1 C1 10.24 1 19.48 1 29 C2.32 28.67 3.64 28.34 5 28 C6.35420469 27.98180531 7.70950102 28.00254051 9.0625 28.0625 C13.05474774 28.35453056 13.05474774 28.35453056 16 26 C15.67 27.98 15.34 29.96 15 32 C14.34 32 13.68 32 13 32 C13 31.34 13 30.68 13 30 C12.34 30.66 11.68 31.32 11 32 C9.68252676 32.69748583 8.35085807 33.36959957 7 34 C6.505 32.515 6.505 32.515 6 31 C5.195625 31.020625 4.39125 31.04125 3.5625 31.0625 C1 31 1 31 0 30 C-0.08783542 27.78144736 -0.10694609 25.56011504 -0.09765625 23.33984375 C-0.0962413 22.67537735 -0.09482635 22.01091095 -0.09336853 21.3263092 C-0.08775518 19.19666101 -0.07520054 17.06711661 -0.0625 14.9375 C-0.05748671 13.49674631 -0.05292351 12.05599097 -0.04882812 10.61523438 C-0.03778145 7.07678898 -0.02050792 3.53840461 0 0 Z " fill="#B2BFDA" transform="translate(184,92)"/>
<path d="M0 0 C3.66666667 0 7.33333333 0 11 0 C11 0.66 11 1.32 11 2 C11.66 2 12.32 2 13 2 C13.33 1.34 13.66 0.68 14 0 C14.66 1.65 15.32 3.3 16 5 C10.06 5.495 10.06 5.495 4 6 C4.33 7.32 4.66 8.64 5 10 C4.360625 9.505 3.72125 9.01 3.0625 8.5 C1.29025661 6.90197138 1.29025661 6.90197138 0 7 C0 4.69 0 2.38 0 0 Z " fill="#C7CACE" transform="translate(31,110)"/>
<path d="M0 0 C0.33 0 0.66 0 1 0 C0.41509121 6.14154225 -0.54066252 12.00679849 -2 18 C-2.66 18 -3.32 18 -4 18 C-4.5321441 15.91952703 -5.05031786 13.83547707 -5.5625 11.75 C-5.85253906 10.58984375 -6.14257812 9.4296875 -6.44140625 8.234375 C-6.95179964 5.27909017 -7.02996165 3.75565899 -6 1 C-5.38125 1.33 -4.7625 1.66 -4.125 2 C-2.08981656 3.14193235 -2.08981656 3.14193235 0 3 C0 2.01 0 1.02 0 0 Z " fill="#E5EDF6" transform="translate(118,96)"/>
<path d="M0 0 C1.42336877 2.84673755 1.00758837 5.14615347 0.87890625 8.3203125 C0.83056641 9.57714844 0.78222656 10.83398438 0.73242188 12.12890625 C0.67634766 13.44761719 0.62027344 14.76632813 0.5625 16.125 C0.50927587 17.46482438 0.45653549 18.80466808 0.40429688 20.14453125 C0.27429992 23.42990887 0.13932314 26.71500678 0 30 C0.66 30.33 1.32 30.66 2 31 C0.02 31.33 -1.96 31.66 -4 32 C-4 31.34 -4 30.68 -4 30 C-3.34 30 -2.68 30 -2 30 C-2 21.09 -2 12.18 -2 3 C-2.99 3.33 -3.98 3.66 -5 4 C-4.67 3.01 -4.34 2.02 -4 1 C-1.9375 0.3125 -1.9375 0.3125 0 0 Z " fill="#FBEFB7" transform="translate(62,106)"/>
<path d="M0 0 C1.65 0 3.3 0 5 0 C5 8.25 5 16.5 5 25 C4.67 25 4.34 25 4 25 C4 18.73 4 12.46 4 6 C3.01 6.495 3.01 6.495 2 7 C2 12.94 2 18.88 2 25 C1.34 25 0.68 25 0 25 C0 16.75 0 8.5 0 0 Z " fill="#E3EDF2" transform="translate(127,96)"/>
<path d="M0 0 C0.33 0 0.66 0 1 0 C1 5.61 1 11.22 1 17 C2.65 17 4.3 17 6 17 C4.68 17.33 3.36 17.66 2 18 C2 18.66 2 19.32 2 20 C1.01 20 0.02 20 -1 20 C-1.33 19.34 -1.66 18.68 -2 18 C-4.31 18 -6.62 18 -9 18 C-9 17.67 -9 17.34 -9 17 C-7.35 16.67 -5.7 16.34 -4 16 C-2.68 10.72 -1.36 5.44 0 0 Z " fill="#E7EEF5" transform="translate(121,104)"/>
<path d="M0 0 C1.50433594 0.01353516 1.50433594 0.01353516 3.0390625 0.02734375 C3.80992187 0.03894531 4.58078125 0.05054687 5.375 0.0625 C5.705 1.7125 6.035 3.3625 6.375 5.0625 C1.425 5.0625 -3.525 5.0625 -8.625 5.0625 C-8.295 3.7425 -7.965 2.4225 -7.625 1.0625 C-4.98041621 -0.25979189 -2.94738699 -0.03427194 0 0 Z " fill="#FAFCF9" transform="translate(146.625,110.9375)"/>
<path d="M0 0 C0.33 0 0.66 0 1 0 C1 5.28 1 10.56 1 16 C-3.29 16 -7.58 16 -12 16 C-12 15.01 -12 14.02 -12 13 C-8.535 12.505 -8.535 12.505 -5 12 C-4.34 10.35 -3.68 8.7 -3 7 C-2.34 7 -1.68 7 -1 7 C-0.67 4.69 -0.34 2.38 0 0 Z " fill="#385594" transform="translate(179,105)"/>
<path d="M0 0 C3 0 6 0 9 0 C8.34 0.433125 7.68 0.86625 7 1.3125 C3.87046391 5.51781411 4.68515472 9.92749266 5 15 C4.01 15 3.02 15 2 15 C-0.59227518 10.13948404 -0.18689553 5.34728867 0 0 Z " fill="#F6F8F9" transform="translate(159,104)"/>
<path d="M0 0 C0.66 0.66 1.32 1.32 2 2 C4.00032373 3.00016187 5.83125748 3.49396008 8 4 C7.67 5.32 7.34 6.64 7 8 C5.71254964 8.38922918 4.41980403 8.76098036 3.125 9.125 C2.04605469 9.43824219 2.04605469 9.43824219 0.9453125 9.7578125 C0.30335937 9.83773437 -0.33859375 9.91765625 -1 10 C-1.66 9.34 -2.32 8.68 -3 8 C-2.75 4.4375 -2.75 4.4375 -2 1 C-1.34 0.67 -0.68 0.34 0 0 Z " fill="#FCFCF9" transform="translate(49,99)"/>
<path d="M0 0 C2.64 0 5.28 0 8 0 C8.77916092 5.02125926 9.13016601 8.97703996 8 14 C5.53721199 11.53721199 5.00228745 9.29323018 4 6 C3.34 6 2.68 6 2 6 C1.34 4.02 0.68 2.04 0 0 Z " fill="#27439A" transform="translate(103,96)"/>
<path d="M0 0 C0.33 0 0.66 0 1 0 C1 8.25 1 16.5 1 25 C-0.98 25.33 -2.96 25.66 -5 26 C-5.99 26.33 -6.98 26.66 -8 27 C-8.33 26.34 -8.66 25.68 -9 25 C-7.68 24.67 -6.36 24.34 -5 24 C-4.34 21.36 -3.68 18.72 -3 16 C-2.67 16.99 -2.34 17.98 -2 19 C-1.34 19 -0.68 19 0 19 C0 12.73 0 6.46 0 0 Z " fill="#D9E3F2" transform="translate(92,96)"/>
<path d="M0 0 C0.33 0 0.66 0 1 0 C1 5.28 1 10.56 1 16 C-3.22786215 14.30885514 -6.38376605 12.69115085 -10 10 C-10 9.34 -10 8.68 -10 8 C-9.2575 8.185625 -8.515 8.37125 -7.75 8.5625 C-5.05009037 8.99203108 -3.55368923 8.85122974 -1 8 C-0.67 5.36 -0.34 2.72 0 0 Z " fill="#4C5B9B" transform="translate(60,88)"/>
<path d="M0 0 C4.95 0 9.9 0 15 0 C15 1.32 15 2.64 15 4 C10.05 4 5.1 4 0 4 C0.66 3.34 1.32 2.68 2 2 C1.34 1.34 0.68 0.68 0 0 Z " fill="#1C3E89" transform="translate(136,117)"/>
<path d="M0 0 C6.32491289 0.47735192 6.32491289 0.47735192 8.9375 2.5 C10.54532609 6.28312021 10.23381522 9.94720285 10 14 C9.67 14 9.34 14 9 14 C9 12.02 9 10.04 9 8 C8.67 8.99 8.34 9.98 8 11 C7.34 11 6.68 11 6 11 C5.67 9.02 5.34 7.04 5 5 C3.68 4.67 2.36 4.34 1 4 C0.67 2.68 0.34 1.36 0 0 Z " fill="#395492" transform="translate(191,104)"/>
<path d="M0 0 C1.65 0 3.3 0 5 0 C5.66 1.98 6.32 3.96 7 6 C9.64 6 12.28 6 15 6 C14.67 6.66 14.34 7.32 14 8 C9.49793215 8.17655168 6.01025005 8.17699288 2 6 C0 3 0 3 0 0 Z " fill="#325093" transform="translate(69,114)"/>
<path d="M0 0 C0.66 0.33 1.32 0.66 2 1 C1.34 2.98 0.68 4.96 0 7 C-2.64 7.33 -5.28 7.66 -8 8 C-8 13.28 -8 18.56 -8 24 C-8.33 24 -8.66 24 -9 24 C-10.38026906 8.85112108 -10.38026906 8.85112108 -6.99609375 4.3125 C-4.7303417 2.61052663 -2.55798541 1.21301292 0 0 Z " fill="#F3D746" transform="translate(30,128)"/>
<path d="M0 0 C0.99 0 1.98 0 3 0 C3 4.95 3 9.9 3 15 C2.01 15 1.02 15 0 15 C0 10.05 0 5.1 0 0 Z " fill="#214299" transform="translate(94,97)"/>
<path d="M0 0 C2 1 2 1 3 2 C3.04092937 4.33297433 3.04241723 6.66705225 3 9 C0.69 8.67 -1.62 8.34 -4 8 C-4 6.02 -4 4.04 -4 2 C-2.68 2 -1.36 2 0 2 C0 1.34 0 0.68 0 0 Z " fill="#D9DDE2" transform="translate(25,98)"/>
<path d="M0 0 C0.99 0.33 1.98 0.66 3 1 C-2.75 6 -2.75 6 -5 6 C-5 6.66 -5 7.32 -5 8 C-7 9.625 -7 9.625 -9 11 C-9.66 10.67 -10.32 10.34 -11 10 C-9.35 8.02 -7.7 6.04 -6 4 C-6.99 3.34 -7.98 2.68 -9 2 C-5.62182575 1.15545644 -3.32534757 0.89155081 0 2 C0 1.34 0 0.68 0 0 Z " fill="#F7D130" transform="translate(45,144)"/>
<path d="M0 0 C6.27 0 12.54 0 19 0 C18.01 0.33 17.02 0.66 16 1 C16 1.66 16 2.32 16 3 C10.72 3 5.44 3 0 3 C0 2.01 0 1.02 0 0 Z " fill="#E3EBF2" transform="translate(132,121)"/>
<path d="M0 0 C0.66 2.31 1.32 4.62 2 7 C1.01 7.33 0.02 7.66 -1 8 C-1 8.99 -1 9.98 -1 11 C-2.32 11 -3.64 11 -5 11 C-4.8864371 9.35333797 -4.75882619 7.70763918 -4.625 6.0625 C-4.55539063 5.14597656 -4.48578125 4.22945313 -4.4140625 3.28515625 C-4.27742187 2.53105469 -4.14078125 1.77695313 -4 1 C-2 0 -2 0 0 0 Z " fill="#F4F7F7" transform="translate(205,109)"/>
<path d="M0 0 C3.96 0 7.92 0 12 0 C12 0.99 12 1.98 12 3 C11.34 3 10.68 3 10 3 C10 2.34 10 1.68 10 1 C9.34 1 8.68 1 8 1 C8.33 1.99 8.66 2.98 9 4 C6.03 4 3.06 4 0 4 C0 2.68 0 1.36 0 0 Z " fill="#F9FBFB" transform="translate(138,101)"/>
<path d="M0 0 C0.94875 0.350625 1.8975 0.70125 2.875 1.0625 C2.875 2.0525 2.875 3.0425 2.875 4.0625 C0.565 4.3925 -1.745 4.7225 -4.125 5.0625 C-3.795 6.3825 -3.465 7.7025 -3.125 9.0625 C-3.785 9.0625 -4.445 9.0625 -5.125 9.0625 C-5.125 6.0925 -5.125 3.1225 -5.125 0.0625 C-3.125 -0.9375 -3.125 -0.9375 0 0 Z " fill="#E4E9ED" transform="translate(73.125,108.9375)"/>
<path d="M0 0 C0.66 0.33 1.32 0.66 2 1 C1.67 1.99 1.34 2.98 1 4 C0.34 4 -0.32 4 -1 4 C-1.33 5.32 -1.66 6.64 -2 8 C-4.64 8.33 -7.28 8.66 -10 9 C-9 6 -9 6 -6.125 4.5 C-5.09375 4.005 -4.0625 3.51 -3 3 C-1.18445841 1.43897509 -1.18445841 1.43897509 0 0 Z " fill="#F3CF19" transform="translate(49,115)"/>
<path d="M0 0 C3.96 0 7.92 0 12 0 C12 0.33 12 0.66 12 1 C8.7 1.33 5.4 1.66 2 2 C2 2.66 2 3.32 2 4 C4.43387753 5.21693876 6.41838846 5.31959896 9.125 5.5625 C10.03507813 5.64628906 10.94515625 5.73007813 11.8828125 5.81640625 C12.58148438 5.87699219 13.28015625 5.93757813 14 6 C14 6.33 14 6.66 14 7 C9.38 7 4.76 7 0 7 C0 4.69 0 2.38 0 0 Z " fill="#D1DFED" transform="translate(137,110)"/>
<path d="M0 0 C0 0.99 0 1.98 0 3 C-2.75 4.625 -2.75 4.625 -6 6 C-8.375 5.1875 -8.375 5.1875 -10 4 C-9.67 2.68 -9.34 1.36 -9 0 C-2.25 -1.125 -2.25 -1.125 0 0 Z " fill="#F9FDF0" transform="translate(27,129)"/>
<path d="M0 0 C0 4.95 0 9.9 0 15 C-0.33 15 -0.66 15 -1 15 C-1 12.36 -1 9.72 -1 7 C-1.66 7 -2.32 7 -3 7 C-6 3.53846154 -6 3.53846154 -6 1 C-3 0 -3 0 0 0 Z " fill="#1E3F89" transform="translate(179,105)"/>
<path d="M0 0 C0.99 0 1.98 0 3 0 C3 1.32 3 2.64 3 4 C-3.625 5 -3.625 5 -7 5 C-8.6875 3.5 -8.6875 3.5 -10 2 C-6.30458414 1.04975021 -3.69541586 1.04975021 0 2 C0 1.34 0 0.68 0 0 Z " fill="#273A89" transform="translate(42,82)"/>
<path d="M0 0 C0.33 0.66 0.66 1.32 1 2 C1.66 2.33 2.32 2.66 3 3 C1.79296875 4.51953125 1.79296875 4.51953125 0 6 C-2.26171875 6.07421875 -2.26171875 6.07421875 -4.6875 5.6875 C-5.49574219 5.56761719 -6.30398437 5.44773437 -7.13671875 5.32421875 C-7.75160156 5.21722656 -8.36648437 5.11023438 -9 5 C-9 4.34 -9 3.68 -9 3 C-9.66 2.67 -10.32 2.34 -11 2 C-7.37 2 -3.74 2 0 2 C0 1.34 0 0.68 0 0 Z " fill="#21438C" transform="translate(85,115)"/>
<path d="M0 0 C3.06188727 4.08251636 3.37243503 4.56497929 3.1875 9.25 C3.16042969 10.14203125 3.13335937 11.0340625 3.10546875 11.953125 C3.07066406 12.62859375 3.03585938 13.3040625 3 14 C2.01 14 1.02 14 0 14 C0 9.38 0 4.76 0 0 Z " fill="#1D4296" transform="translate(123,106)"/>
<path d="M0 0 C0.99 0 1.98 0 3 0 C3 0.66 3 1.32 3 2 C3.66 2 4.32 2 5 2 C5.33 1.34 5.66 0.68 6 0 C6.66 1.65 7.32 3.3 8 5 C5.36 5 2.72 5 0 5 C-0.5625 3.0625 -0.5625 3.0625 -1 1 C-0.67 0.67 -0.34 0.34 0 0 Z " fill="#B8BDC4" transform="translate(39,110)"/>
<path d="M0 0 C3.3 1.98 6.6 3.96 10 6 C9.01 6.66 8.02 7.32 7 8 C6.34 7.34 5.68 6.68 5 6 C4.67 6.99 4.34 7.98 4 9 C3.01 8.67 2.02 8.34 1 8 C1 7.34 1 6.68 1 6 C0.34 5.34 -0.32 4.68 -1 4 C-0.34 4 0.32 4 1 4 C0.67 2.68 0.34 1.36 0 0 Z " fill="#EAEDEF" transform="translate(38,89)"/>
<path d="M0 0 C0.33 1.32 0.66 2.64 1 4 C-0.65 4.33 -2.3 4.66 -4 5 C-3.34 6.32 -2.68 7.64 -2 9 C-4.64 8.67 -7.28 8.34 -10 8 C-6.97727468 4.74475735 -3.74281699 2.38179263 0 0 Z " fill="#FAF7D7" transform="translate(50,143)"/>
<path d="M0 0 C0.66 0.33 1.32 0.66 2 1 C2 1.66 2 2.32 2 3 C2.66 3 3.32 3 4 3 C3.67 4.32 3.34 5.64 3 7 C1.35 7 -0.3 7 -2 7 C-2.33 6.34 -2.66 5.68 -3 5 C-1.5625 2.375 -1.5625 2.375 0 0 Z " fill="#F3F8F9" transform="translate(171,111)"/>
<path d="M0 0 C2.31 0 4.62 0 7 0 C7.33 0.66 7.66 1.32 8 2 C7.360625 2.28875 6.72125 2.5775 6.0625 2.875 C3.84793921 3.82823451 3.84793921 3.82823451 3 6 C1.68 5.34 0.36 4.68 -1 4 C-0.67 2.68 -0.34 1.36 0 0 Z " fill="#E0EAEF" transform="translate(75,100)"/>
<path d="M0 0 C1.32 0 2.64 0 4 0 C4 3.3 4 6.6 4 10 C3.34 10 2.68 10 2 10 C1.34 6.7 0.68 3.4 0 0 Z " fill="#DAE3EA" transform="translate(112,104)"/>
<path d="M0 0 C0 0.33 0 0.66 0 1 C-2.66666667 1.66666667 -5.33333333 2.33333333 -8 3 C-8.74765625 3.18691406 -9.4953125 3.37382813 -10.265625 3.56640625 C-10.83796875 3.70949219 -11.4103125 3.85257812 -12 4 C-12.33 2.68 -12.66 1.36 -13 0 C-8.34462607 -0.83796731 -4.62921525 -1.0161692 0 0 Z " fill="#D0DBEA" transform="translate(180,121)"/>
<path d="M0 0 C2.97 0.33 5.94 0.66 9 1 C8.67 2.32 8.34 3.64 8 5 C6.68 5 5.36 5 4 5 C4 4.34 4 3.68 4 3 C2.68 2.67 1.36 2.34 0 2 C0 1.34 0 0.68 0 0 Z " fill="#FAFAF4" transform="translate(99,121)"/>
<path d="M0 0 C0.66 0 1.32 0 2 0 C3.6875 1.8125 3.6875 1.8125 5 4 C4.67 4.99 4.34 5.98 4 7 C2.68 7 1.36 7 0 7 C0 4.69 0 2.38 0 0 Z " fill="#999AB3" transform="translate(29,101)"/>
<path d="M0 0 C2.64 1.65 5.28 3.3 8 5 C7.01 5.66 6.02 6.32 5 7 C3.68 6.34 2.36 5.68 1 5 C1 4.67 1 4.34 1 4 C0.34 3.67 -0.32 3.34 -1 3 C-0.67 2.01 -0.34 1.02 0 0 Z " fill="#E8EFF3" transform="translate(48,96)"/>
<path d="M0 0 C-2.46153846 3.81538462 -2.46153846 3.81538462 -5.1875 4.75 C-5.785625 4.8325 -6.38375 4.915 -7 5 C-7.33 4.34 -7.66 3.68 -8 3 C-5.32528887 -1.0120667 -4.40750667 -1.322252 0 0 Z " fill="#F0F3F1" transform="translate(72,97)"/>
<path d="M0 0 C0.66 0 1.32 0 2 0 C2.36 5.4 2.36 5.4 0.875 7.875 C-1.78034983 9.4682099 -3.96789518 9.20214032 -7 9 C-4 7 -4 7 -2 7 C-1.67 5.68 -1.34 4.36 -1 3 C-0.34 3 0.32 3 1 3 C0.67 2.01 0.34 1.02 0 0 Z " fill="#193A86" transform="translate(198,112)"/>
<path d="M0 0 C2.31 0.33 4.62 0.66 7 1 C7.33 2.32 7.66 3.64 8 5 C7.67 4.34 7.34 3.68 7 3 C2.545 3.495 2.545 3.495 -2 4 C-2 3.34 -2 2.68 -2 2 C-1.34 2 -0.68 2 0 2 C0 1.34 0 0.68 0 0 Z " fill="#EEF5FA" transform="translate(76,111)"/>
<path d="M0 0 C0.66 0 1.32 0 2 0 C3.23076923 6.4 3.23076923 6.4 2.0625 9.4375 C1.711875 9.953125 1.36125 10.46875 1 11 C-1.42857143 3.57142857 -1.42857143 3.57142857 0 0 Z " fill="#325093" transform="translate(118,101)"/>
<path d="M0 0 C2.31 0.33 4.62 0.66 7 1 C6.67 1.99 6.34 2.98 6 4 C4.02 4 2.04 4 0 4 C-0.33 3.34 -0.66 2.68 -1 2 C-0.67 1.34 -0.34 0.68 0 0 Z " fill="#32448D" transform="translate(51,83)"/>
<path d="M0 0 C0.66 0.33 1.32 0.66 2 1 C2.1875 4.375 2.1875 4.375 2 8 C1.01 8.66 0.02 9.32 -1 10 C-1 8.68 -1 7.36 -1 6 C-0.34 6 0.32 6 1 6 C0.649375 5.38125 0.29875 4.7625 -0.0625 4.125 C-0.371875 3.42375 -0.68125 2.7225 -1 2 C-0.67 1.34 -0.34 0.68 0 0 Z " fill="#DFE6EF" transform="translate(195,108)"/>
<path d="M0 0 C0.99 0.33 1.98 0.66 3 1 C2.34 3.31 1.68 5.62 1 8 C0.34 8 -0.32 8 -1 8 C-1.125 2.25 -1.125 2.25 0 0 Z " fill="#F0F3F6" transform="translate(44,99)"/>
<path d="M0 0 C2.64 0 5.28 0 8 0 C8 2.31 8 4.62 8 7 C7.79375 6.38125 7.5875 5.7625 7.375 5.125 C5.45224112 2.15346355 3.33405473 1.86975341 0 1 C0 0.67 0 0.34 0 0 Z " fill="#3E5889" transform="translate(103,96)"/>
<path d="M0 0 C3.465 1.98 3.465 1.98 7 4 C6.01 4.66 5.02 5.32 4 6 C2.0625 5.1875 2.0625 5.1875 0 4 C-0.33 3.01 -0.66 2.02 -1 1 C-0.67 0.67 -0.34 0.34 0 0 Z " fill="#E9EDEE" transform="translate(25,80)"/>
<path d="M0 0 C0.33 0 0.66 0 1 0 C1.33 3.3 1.66 6.6 2 10 C1.01 10 0.02 10 -1 10 C-1.33 8.35 -1.66 6.7 -2 5 C-1.34 5 -0.68 5 0 5 C0 3.35 0 1.7 0 0 Z " fill="#E9F0F5" transform="translate(162,109)"/>
<path d="M0 0 C2.475 0.99 2.475 0.99 5 2 C5 2.66 5 3.32 5 4 C6.65 4 8.3 4 10 4 C10 4.33 10 4.66 10 5 C7.36 5 4.72 5 2 5 C2 4.01 2 3.02 2 2 C1.34 2 0.68 2 0 2 C0 1.34 0 0.68 0 0 Z " fill="#F2D445" transform="translate(22,152)"/>
<path d="M0 0 C1.65 0 3.3 0 5 0 C4.67 1.98 4.34 3.96 4 6 C3.01 5.67 2.02 5.34 1 5 C0.67 3.35 0.34 1.7 0 0 Z " fill="#EBF2F1" transform="translate(154,121)"/>
<path d="M0 0 C3.00617269 3.00617269 2.59585316 5.82381598 3 10 C2.67 9.34 2.34 8.68 2 8 C1.34 8 0.68 8 0 8 C0 5.36 0 2.72 0 0 Z " fill="#D3DFE9" transform="translate(108,106)"/>
<path d="M0 0 C-2.31 1.32 -4.62 2.64 -7 4 C-7 3.01 -7 2.02 -7 1 C-3.375 -1.125 -3.375 -1.125 0 0 Z " fill="#FDF6E5" transform="translate(28,131)"/>
<path d="M0 0 C0.66 0 1.32 0 2 0 C2.33 2.31 2.66 4.62 3 7 C2.34 7 1.68 7 1 7 C0.87625 6.360625 0.7525 5.72125 0.625 5.0625 C0.315625 4.0415625 0.315625 4.0415625 0 3 C-0.66 2.67 -1.32 2.34 -2 2 C-1.34 1.34 -0.68 0.68 0 0 Z " fill="#F9D11F" transform="translate(53,112)"/>
</svg>
